<svg preserveAspectRatio="none" width="100%" height="100%" overflow="visible" style="display: block;" viewBox="0 0 19.6318 23.5264" fill="none" xmlns="http://www.w3.org/2000/svg">
<g id="Group">
<g id="Vector">
<path d="M16.397 12.5113C16.3696 9.5391 18.8931 8.09311 19.0085 8.02579C17.5793 5.99421 15.3642 5.71663 14.5858 5.6945C12.7253 5.50361 10.9207 6.77992 9.97295 6.77992C9.00631 6.77992 7.54689 5.71295 5.97397 5.7443C3.94989 5.77473 2.05633 6.91732 1.01781 8.69161C-1.12545 12.3093 0.473007 17.6258 2.52641 20.55C3.55358 21.9822 4.75384 23.5812 6.32487 23.525C7.86185 23.4632 8.43597 22.5696 10.2908 22.5696C12.1285 22.5696 12.6676 23.525 14.2699 23.489C15.9194 23.4632 16.9579 22.0504 17.9492 20.6053C19.1362 18.9638 19.6129 17.3473 19.6318 17.2643C19.593 17.2513 16.4283 16.0737 16.397 12.5113Z" fill="white"/>
<path d="M13.3704 3.77082C14.197 2.76287 14.7626 1.39158 14.6056 0C13.4092 0.0516425 11.9129 0.806914 11.0512 1.79273C10.2889 2.66143 9.60786 4.08529 9.78378 5.4243C11.1278 5.52205 12.5078 4.76309 13.3704 3.77082Z" fill="white"/>
</g>
</g>
</svg>
