<svg preserveAspectRatio="none" width="100%" height="100%" overflow="visible" style="display: block;" viewBox="0 0 75.4266 16.0581" fill="none" xmlns="http://www.w3.org/2000/svg">
<g id="Group">
<path id="Vector" d="M10.6264 12.4523H8.47844L7.30183 8.84746H3.21205L2.09123 12.4523H0L4.05195 0.179827H6.55462L10.6264 12.4523ZM6.94714 7.33508L5.88308 4.13048C5.77052 3.8031 5.5596 3.03215 5.24842 1.81855H5.21059C5.08669 2.34051 4.88711 3.11146 4.61282 4.13048L3.56768 7.33508H6.94714V7.33508Z" fill="var(--fill-0, white)"/>
<path id="Vector_2" d="M21.0464 7.91887C21.0464 9.42388 20.6293 10.6135 19.7951 11.4868C19.0479 12.2642 18.12 12.6525 17.0124 12.6525C15.8169 12.6525 14.9581 12.2338 14.4351 11.3964H14.3972V16.0581H12.3807V6.51623C12.3807 5.57006 12.3552 4.599 12.306 3.60304H14.0794L14.192 5.00569H14.2298C14.9023 3.94886 15.9228 3.42137 17.2924 3.42137C18.3631 3.42137 19.2569 3.83359 19.972 4.65894C20.6889 5.48522 21.0464 6.57156 21.0464 7.91887ZM18.9921 7.99081C18.9921 7.12948 18.7934 6.4194 18.3943 5.86056C17.9583 5.27773 17.3728 4.98632 16.6388 4.98632C16.1413 4.98632 15.6892 5.14863 15.2854 5.46862C14.8805 5.79139 14.6157 6.21283 14.4918 6.73479C14.4294 6.97825 14.3982 7.17744 14.3982 7.33421V8.80971C14.3982 9.4534 14.6006 9.99656 15.0054 10.4401C15.4102 10.8837 15.9361 11.105 16.583 11.105C17.3425 11.105 17.9337 10.8192 18.3565 10.2492C18.7802 9.67841 18.9921 8.9259 18.9921 7.99081Z" fill="var(--fill-0, white)"/>
<path id="Vector_3" d="M31.4859 7.91887C31.4859 9.42388 31.0688 10.6135 30.2336 11.4868C29.4873 12.2642 28.5595 12.6525 27.4519 12.6525C26.2564 12.6525 25.3976 12.2338 24.8755 11.3964H24.8376V16.0581H22.8211V6.51623C22.8211 5.57006 22.7956 4.599 22.7464 3.60304H24.5198L24.6324 5.00569H24.6702C25.3418 3.94886 26.3623 3.42137 27.7328 3.42137C28.8026 3.42137 29.6964 3.83359 30.4133 4.65894C31.1274 5.48522 31.4859 6.57156 31.4859 7.91887ZM29.4315 7.99081C29.4315 7.12948 29.232 6.4194 28.8328 5.86056C28.3968 5.27773 27.8132 4.98632 27.0783 4.98632C26.5799 4.98632 26.1287 5.14863 25.7239 5.46862C25.3191 5.79139 25.0552 6.21283 24.9313 6.73479C24.8698 6.97825 24.8376 7.17744 24.8376 7.33421V8.80971C24.8376 9.4534 25.04 9.99656 25.443 10.4401C25.8478 10.8828 26.3737 11.105 27.0225 11.105C27.782 11.105 28.3732 10.8192 28.7959 10.2492C29.2197 9.67841 29.4315 8.9259 29.4315 7.99081Z" fill="var(--fill-0, white)"/>
<path id="Vector_4" d="M43.1577 9.01075C43.1577 10.0547 42.786 10.904 42.0397 11.5597C41.2197 12.2762 40.078 12.634 38.6111 12.634C37.2566 12.634 36.1708 12.3795 35.3489 11.8695L35.8161 10.2308C36.7014 10.7528 37.6728 11.0147 38.7312 11.0147C39.4907 11.0147 40.0818 10.8468 40.5065 10.513C40.9293 10.1792 41.1402 9.73098 41.1402 9.17213C41.1402 8.67415 40.9662 8.25455 40.6172 7.91427C40.27 7.57398 39.6902 7.25767 38.8806 6.96534C36.6768 6.16396 35.5759 4.99001 35.5759 3.44627C35.5759 2.4374 35.9618 1.6102 36.7345 0.966511C37.5044 0.321902 38.5316 5.89489e-05 39.816 5.89489e-05C40.9614 5.89489e-05 41.913 0.19464 42.6725 0.582881L42.1683 2.18564C41.459 1.80939 40.6569 1.62126 39.7593 1.62126C39.0499 1.62126 38.4957 1.79187 38.0984 2.13123C37.7626 2.43463 37.5943 2.80443 37.5943 3.24247C37.5943 3.72754 37.7863 4.12869 38.1722 4.44408C38.508 4.73549 39.118 5.05088 40.0033 5.39116C41.0863 5.81629 41.8817 6.31335 42.3934 6.88326C42.9032 7.45133 43.1577 8.16234 43.1577 9.01075Z" fill="var(--fill-0, white)"/>
<path id="Vector_5" d="M49.8246 5.07847H47.6018V9.37494C47.6018 10.4677 47.9934 11.0137 48.7785 11.0137C49.1388 11.0137 49.4377 10.9832 49.6742 10.9224L49.73 12.4154C49.3327 12.5602 48.8097 12.633 48.1618 12.633C47.3654 12.633 46.743 12.396 46.2938 11.9229C45.8464 11.4489 45.6213 10.654 45.6213 9.53725V5.07663H44.2971V3.60113H45.6213V1.98085L47.6018 1.39803V3.60113H49.8246V5.07847Z" fill="var(--fill-0, white)"/>
<path id="Vector_6" d="M59.8533 7.95478C59.8533 9.31501 59.4542 10.4318 58.6578 11.3051C57.8226 12.2042 56.7141 12.6524 55.3322 12.6524C54.0005 12.6524 52.9402 12.2217 52.1495 11.3604C51.3588 10.4991 50.9634 9.41184 50.9634 8.10141C50.9634 6.73012 51.3701 5.6069 52.1864 4.73359C53.0007 3.85935 54.0998 3.42224 55.4817 3.42224C56.8134 3.42224 57.885 3.8529 58.6937 4.71514C59.4674 5.55157 59.8533 6.63145 59.8533 7.95478ZM57.7611 8.01841C57.7611 7.20228 57.5824 6.50234 57.2201 5.9186C56.7973 5.2122 56.1929 4.85993 55.4098 4.85993C54.5992 4.85993 53.9835 5.21312 53.5607 5.9186C53.1984 6.50326 53.0197 7.21427 53.0197 8.0553C53.0197 8.87144 53.1984 9.57138 53.5607 10.1542C53.9967 10.8606 54.6058 11.2129 55.3918 11.2129C56.1617 11.2129 56.7661 10.8532 57.2021 10.1358C57.5738 9.54095 57.7611 8.83363 57.7611 8.01841Z" fill="var(--fill-0, white)"/>
<path id="Vector_7" d="M66.408 5.33214C66.2084 5.29618 65.9956 5.27773 65.7724 5.27773C65.063 5.27773 64.5144 5.53871 64.1285 6.06159C63.7928 6.52268 63.6244 7.10551 63.6244 7.80914V12.4523H61.6088L61.6278 6.38989C61.6278 5.36995 61.6022 4.44131 61.5521 3.60396H63.3085L63.3823 5.2971H63.4381C63.6509 4.7152 63.9867 4.24673 64.4463 3.89537C64.8956 3.57906 65.3808 3.42137 65.9039 3.42137C66.0902 3.42137 66.2586 3.43428 66.408 3.45734V5.33214Z" fill="var(--fill-0, white)"/>
<path id="Vector_8" d="M75.4261 7.60899C75.4261 7.96127 75.4025 8.25821 75.3524 8.50075H69.3028C69.3265 9.37498 69.6187 10.0436 70.1806 10.5047C70.6904 10.9169 71.3496 11.1234 72.1592 11.1234C73.055 11.1234 73.8721 10.9842 74.6071 10.7048L74.923 12.0696C74.0641 12.4348 73.0502 12.6165 71.8802 12.6165C70.4728 12.6165 69.3681 12.2125 68.5641 11.4056C67.7621 10.5987 67.3601 9.51515 67.3601 8.15585C67.3601 6.82144 67.7337 5.71021 68.4819 4.82399C69.265 3.87783 70.3234 3.40474 71.6551 3.40474C72.9632 3.40474 73.9535 3.87783 74.626 4.82399C75.1585 5.57557 75.4261 6.50514 75.4261 7.60899ZM73.5033 7.09902C73.5165 6.5162 73.385 6.01269 73.1117 5.58756C72.7627 5.0407 72.2264 4.76774 71.5047 4.76774C70.8455 4.76774 70.3092 5.03425 69.8997 5.56912C69.5639 5.99424 69.3643 6.50421 69.3028 7.0981H73.5033V7.09902Z" fill="var(--fill-0, white)"/>
</g>
</svg>
